<svg xmlns="http://www.w3.org/2000/svg" viewBox="0 0 32 32" id="marcaregistration">
  <path d="M14.665,10.028a.5.5,0,0,0-.556.159L10.5,14.7,6.891,10.188A.5.5,0,0,0,6,10.5v11a.5.5,0,0,0,1,0V11.925l3.109,3.887a.518.518,0,0,0,.781,0L14,11.925V21.5a.5.5,0,0,0,1,0v-11A.5.5,0,0,0,14.665,10.028ZM16,1A15,15,0,1,0,31,16,15.017,15.017,0,0,0,16,1Zm0,29A14,14,0,1,1,30,16,14.016,14.016,0,0,1,16,30Zm6.5-20h-5a.5.5,0,0,0-.5.5v11a.5.5,0,0,0,1,0V17h3.5A2.5,2.5,0,0,1,24,19.5v2a.5.5,0,0,0,1,0v-2a3.484,3.484,0,0,0-1.388-2.772A2.494,2.494,0,0,0,25,14.5v-2A2.5,2.5,0,0,0,22.5,10ZM24,14.5A1.5,1.5,0,0,1,22.5,16H18V11h4.5A1.5,1.5,0,0,1,24,12.5Z" fill="#ee8b62" class="color000000 svgShape"></path>
</svg>
